<?xml version="1.0" encoding="utf-8"?>
<!-- Generator: Adobe Illustrator 18.1.1, SVG Export Plug-In . SVG Version: 6.00 Build 0)  -->
<svg version="1.1" id="Layer_1" xmlns="http://www.w3.org/2000/svg" xmlns:xlink="http://www.w3.org/1999/xlink" x="0px" y="0px"
	 viewBox="0 0 100 100" enable-background="new 0 0 100 100" xml:space="preserve">
<path fill="#F8F9FF" d="M50,100L50,100C22.4,100,0,77.6,0,50v0C0,22.4,22.4,0,50,0h0c27.6,0,50,22.4,50,50v0
	C100,77.6,77.6,100,50,100z"/>
<g>
	<path fill="none" stroke="#1465E7" stroke-width="6" stroke-linecap="round" stroke-miterlimit="10" d="M23.4,26.8
		c0,0,53.9-19.1,50.3-11.6c-2,4.2-37.1,24.4-42.7,29.5c-0.1,0.1-0.1,0.3,0.1,0.3c5.4,0.6,36.1-9.5,36.8-6.6
		c0.2,1.1-30,19.7-31.6,21.9"/>
	<path fill="#1465E7" d="M64.1,67.6L52.4,91.9c-1.3,2.7-5.1,2.7-6.3,0l-9-18.2c-0.8-1.7-0.4-3.8,1.3-4.9l0,0
		c1.1-0.7,2.6-0.6,3.5,0.4l0,0c1.6,1.5,3.9,1.1,5.2-0.6l3.3-4.4c2.6-3.5,7.3-4.8,11.4-3.1l0,0C64.1,62.2,65.3,65.1,64.1,67.6z"/>
</g>
</svg>
