<?xml version="1.0" encoding="utf-8"?>
<!-- Generator: Adobe Illustrator 18.1.1, SVG Export Plug-In . SVG Version: 6.00 Build 0)  -->
<svg version="1.1" id="Layer_1" xmlns="http://www.w3.org/2000/svg" xmlns:xlink="http://www.w3.org/1999/xlink" x="0px" y="0px"
	 viewBox="0 0 528 128" enable-background="new 0 0 528 128" xml:space="preserve">
<g>
	<path fill="none" stroke="#1465E7" stroke-width="13" stroke-linecap="round" stroke-linejoin="round" stroke-miterlimit="10" d="
		M7.9,29.9c0,0,76.4-27.1,71.3-16.4c-2.8,5.9-52.6,34.6-60.5,41.8c-0.2,0.2-0.1,0.4,0.2,0.4c7.6,0.9,51.2-13.4,52.2-9.3
		c0.3,1.5-42.5,27.9-44.8,31"/>
	<path fill="#1465E7" d="M65.6,87.7L49,122.2c-1.8,3.8-7.2,3.8-9,0L27.2,96.4C26,94,26.7,91,29,89.5l0,0c1.6-1,3.7-0.8,5,0.5h0
		c2.2,2.1,5.5,1.6,7.3-0.8l4.7-6.3c3.7-5,10.3-6.8,16.1-4.4h0C65.7,80,67.3,84.2,65.6,87.7z"/>
</g>
<g>
	<path fill="#1465E7" d="M207.9,34.4l-20.6,50.7l-1,2.4c-1.5,3.3-3.9,4.9-7.2,4.9c-2.6,0-4.5-0.7-5.7-2.2c-1.1-1.5-1.8-4.1-2.1-8
		L169,51.5l-10.6,26.3c-4.3,10.5-7.5,17.7-9.8,21.5c-2.2,3.8-5.1,7.1-8.7,9.9c-5.2,4-11.1,6-17.8,6c-7.1,0-12.9-2.2-17.3-6.7
		c-4.4-4.5-6.6-10.3-6.6-17.5c0-9.6,3.5-18,10.5-25.1c3.7-3.8,8.4-6.9,14.1-9.3c5.7-2.4,11.2-3.6,16.6-3.6c2.9,0,5.1,0.6,6.8,1.8
		c1.7,1.2,2.5,2.8,2.5,4.8c0,2-0.7,3.6-2,4.6c-1.3,1-3.5,1.7-6.6,1.9c-6.8,0.6-12.2,2.2-16.4,4.7c-3.4,2.1-6.2,4.8-8.2,8.1
		c-2,3.3-3,6.8-3,10.4c0,3.9,1,6.9,3,9.1c2,2.2,4.7,3.3,8.2,3.3c4,0,7.6-1.8,10.7-5.3c3.1-3.5,6.4-9.7,10-18.6l20.2-49.7
		c1.8-4.4,4.5-6.7,8.2-6.7c4.2,0,6.6,2.5,6.9,7.6l2.6,33.9l13.8-33.9l0.8-2c1.3-3.2,3.7-4.8,7-4.8l2.1-0.1h10.4
		c4.7,0,7.1,1.6,7.1,4.8c0,2.3-0.8,4.2-2.5,5.5c-1.7,1.3-4,1.9-6.9,1.9H207.9z"/>
	<path fill="#1465E7" d="M230.9,52.1c4.9,0,9,1.6,12.2,4.7c3.2,3.1,4.8,7.1,4.8,11.9c0,3.6-0.8,7.2-2.5,10.8
		c-1.7,3.6-3.8,6.4-6.5,8.6c-1.8,1.4-3.6,2.4-5.5,2.9c-1.9,0.5-4.5,0.8-7.9,0.8c-5.5,0-9.3-0.7-11.2-2c-4.6-3.1-6.8-7.7-6.8-13.9
		c0-6.5,2.3-12,7-16.8C219,54.4,224.5,52.1,230.9,52.1z M229.7,62.9c-2.5,0-4.8,1.2-6.9,3.7c-2.1,2.5-3.1,5.2-3.1,8.2
		c0,3.9,2.2,5.9,6.6,5.9c2.6,0,4.6-0.8,6-2.4c2.3-2.6,3.5-5.6,3.5-9c0-1.9-0.6-3.5-1.7-4.7C232.9,63.5,231.5,62.9,229.7,62.9z"/>
	<path fill="#1465E7" d="M276,52.8h1.6c4.3,0,6.5,1.5,6.5,4.5c0,2.1-0.8,3.7-2.3,4.8c-1.5,1.2-3.6,1.7-6.3,1.7h-3.7l-6.8,16.8h5.7
		c4.3,0,6.5,1.5,6.5,4.5c0,2.1-0.8,3.7-2.3,4.8c-1.5,1.2-3.6,1.7-6.3,1.7h-9.1c-2.6,0-4.6-0.6-6.1-1.8c-1.5-1.2-2.3-2.8-2.3-4.8
		c0-1.3,0.3-2.6,0.9-4.2l1-2.2l6-14.8H258c-3.8,0-5.7-1.5-5.7-4.4c0-2.1,0.8-3.7,2.3-4.9s3.6-1.8,6.3-1.8h2.3l2.7-6.7l0.6-1.4
		c1.6-3.8,4.1-5.7,7.5-5.7c1.4,0,2.6,0.5,3.6,1.4c1,0.9,1.5,2.1,1.5,3.4c0,1.3-0.4,2.9-1.3,4.9L276,52.8z"/>
	<path fill="#1465E7" d="M294.1,76.8c0,2.5,1.9,3.8,5.8,3.8H315c4.3,0,6.4,1.5,6.4,4.5c0,2.1-0.8,3.7-2.3,4.8
		c-1.5,1.2-3.6,1.7-6.3,1.7h-14.4c-5.4,0-9.5-1.3-12.3-4c-2.8-2.6-4.2-6.5-4.2-11.6c0-6.6,2.2-12.2,6.6-17c4.4-4.8,9.7-7.1,15.8-7.1
		c4.4,0,8,1.2,10.7,3.5c2.7,2.3,4.1,5.4,4.1,9.2c0,4.6-1.9,8-5.6,10.2c-2.1,1.3-5.2,1.9-9.3,1.9H294.1z M296.6,67.5h5.6
		c3.6,0,5.4-0.8,5.3-2.4c-0.1-1.8-1.3-2.7-3.5-2.7C300.8,62.4,298.4,64.1,296.6,67.5z"/>
	<path fill="#1465E7" d="M386.2,53.5h6.6h1.3c3.8,0,5.7,1.6,5.7,4.9c0,2-0.8,3.8-2.3,5.2c-1.5,1.4-3.5,2.1-5.7,2.1h-1.3h-9.2
		l-9.9,24.4c-6.9,16.8-17,25.3-30.5,25.3c-7,0-12.9-2.3-17.5-6.8c-4.6-4.5-6.9-10.2-6.9-17.1c0-5.4,1.4-10.5,4.1-15.4
		c2.7-4.9,6.6-9.1,11.5-12.6c4.2-3,9-5.3,14.6-7c5.6-1.7,11-2.6,16.4-2.6l7.2-0.2l2.2-0.1l9.8-24.6l0.6-1.4c0.8-2.1,1.8-3.5,3-4.2
		c1.2-0.7,3.2-1,6.1-1h26.1c4.7,0,7.1,1.7,7.1,5c0,2-0.8,3.7-2.3,5.1c-1.6,1.4-3.5,2.1-5.7,2.1h-1.4H394L386.2,53.5z M367.6,65.7
		h-2.8c-10.1,0-18.1,2.3-24.1,6.9c-6.7,5.1-10.1,10.9-10.1,17.4c0,3.5,1.1,6.4,3.2,8.7c2.1,2.3,4.8,3.5,7.9,3.5
		c7.3,0,13.4-5.8,18.1-17.5L367.6,65.7z"/>
	<path fill="#1465E7" d="M443.1,80.6h5.6c4.3,0,6.4,1.5,6.4,4.5c0,2.1-0.8,3.7-2.3,4.9c-1.5,1.2-3.6,1.8-6.3,1.8H440
		c-2.9,0-4.9-1.1-6-3.4c-2.5,2.3-5,3.4-7.4,3.4h-5.8c-3.7,0-6.8-1.3-9-4c-2.3-2.7-3.4-6.2-3.4-10.5c0-6.5,2.3-12.4,6.8-17.5
		c4.5-5.1,9.6-7.7,15.3-7.7c4.3,0,7.5,1.5,9.5,4.5c1.7-2.5,3.9-3.8,6.7-3.8c1.5,0,2.7,0.5,3.7,1.4c1,1,1.5,2.1,1.5,3.5
		c0,1-0.3,2.1-0.8,3.4l-0.6,1.4L443.1,80.6z M424.6,80.9h1.3c2.8,0,4.6-1.1,5.6-3.4l3.6-8.8c0.5-1.2,0.7-2.1,0.7-2.9
		c0-0.9-0.5-1.7-1.4-2.4c-0.9-0.7-2-1-3.2-1c-2.5,0-4.9,1.4-7.2,4.3c-2.3,2.9-3.5,5.9-3.5,9C420.4,79.1,421.8,80.9,424.6,80.9z"/>
	<path fill="#1465E7" d="M474,66.7l-1,2.3c-1.5,3.4-3.6,5-6.4,5c-1.4,0-2.6-0.5-3.7-1.5c-1.1-1-1.7-2.1-1.7-3.3
		c0-1.2,0.5-2.8,1.5-4.7l6.8-13.8c1.7-3.3,3.7-4.9,6.2-4.9c1.3,0,2.5,0.4,3.4,1.3c1,0.9,1.4,1.9,1.4,3.1c0,0.3-0.1,1-0.3,2
		c-0.1,0.7-0.2,1.4-0.2,2c0,2.1,0.8,4.3,2.4,6.6l2.9,4c3,4.1,4.4,8.1,4.4,11.9c0,4.3-1.6,7.9-4.8,10.7c-3.2,2.9-7.2,4.3-11.9,4.3
		h-10.6c-4.3,0-6.5-1.5-6.5-4.5c0-2.1,0.8-3.7,2.3-4.9c1.5-1.2,3.6-1.8,6.3-1.8h5.9c4.7,0,7.1-1.7,7.1-5.1c0-1.3-0.4-2.7-1.3-4.4
		L474,66.7z"/>
	<path fill="#1465E7" d="M519,52.8h1.6c4.3,0,6.5,1.5,6.5,4.5c0,2.1-0.8,3.7-2.3,4.8c-1.5,1.2-3.6,1.7-6.3,1.7h-3.7l-6.8,16.8h5.7
		c4.3,0,6.5,1.5,6.5,4.5c0,2.1-0.8,3.7-2.3,4.8c-1.5,1.2-3.6,1.7-6.3,1.7h-9.1c-2.6,0-4.6-0.6-6.1-1.8c-1.5-1.2-2.3-2.8-2.3-4.8
		c0-1.3,0.3-2.6,0.9-4.2l1-2.2l6-14.8H501c-3.8,0-5.7-1.5-5.7-4.4c0-2.1,0.8-3.7,2.3-4.9c1.5-1.2,3.6-1.8,6.3-1.8h2.3l2.7-6.7
		l0.6-1.4c1.6-3.8,4.1-5.7,7.5-5.7c1.4,0,2.6,0.5,3.6,1.4c1,0.9,1.5,2.1,1.5,3.4c0,1.3-0.4,2.9-1.3,4.9L519,52.8z"/>
</g>
</svg>
